<svg xmlns="http://www.w3.org/2000/svg" aria-hidden="true" width="1436" height="110" viewBox="0 0 1436 110"><path d="M0 18 Q102.5 58 205 18 Q307.5 58 410 18 Q512.5 58 615 18 Q717.5 58 820 18 Q922.5 58 1025 18 Q1127.5 58 1230 18 Q1332.5 58 1435 18" fill="none" stroke="#7a4a12" stroke-width="1.5"></path><circle cx="20.5" cy="25.2" r="7" fill="#f28c1b"></circle><circle cx="20.5" cy="25.2" r="4.3" fill="#f6b21a"></circle><circle cx="20.5" cy="25.2" r="1.8" fill="#c9540c"></circle><circle cx="41.0" cy="30.8" r="8.5" fill="#f28c1b"></circle><circle cx="41.0" cy="30.8" r="5.3" fill="#f6b21a"></circle><circle cx="41.0" cy="30.8" r="2.1" fill="#c9540c"></circle><circle cx="61.5" cy="34.8" r="7" fill="#f28c1b"></circle><circle cx="61.5" cy="34.8" r="4.3" fill="#f6b21a"></circle><circle cx="61.5" cy="34.8" r="1.8" fill="#c9540c"></circle><circle cx="82.0" cy="37.2" r="8.5" fill="#f28c1b"></circle><circle cx="82.0" cy="37.2" r="5.3" fill="#f6b21a"></circle><circle cx="82.0" cy="37.2" r="2.1" fill="#c9540c"></circle><circle cx="102.5" cy="38.0" r="7" fill="#f28c1b"></circle><circle cx="102.5" cy="38.0" r="4.3" fill="#f6b21a"></circle><circle cx="102.5" cy="38.0" r="1.8" fill="#c9540c"></circle><circle cx="123.0" cy="37.2" r="8.5" fill="#f28c1b"></circle><circle cx="123.0" cy="37.2" r="5.3" fill="#f6b21a"></circle><circle cx="123.0" cy="37.2" r="2.1" fill="#c9540c"></circle><circle cx="143.5" cy="34.8" r="7" fill="#f28c1b"></circle><circle cx="143.5" cy="34.8" r="4.3" fill="#f6b21a"></circle><circle cx="143.5" cy="34.8" r="1.8" fill="#c9540c"></circle><circle cx="164.0" cy="30.8" r="8.5" fill="#f28c1b"></circle><circle cx="164.0" cy="30.8" r="5.3" fill="#f6b21a"></circle><circle cx="164.0" cy="30.8" r="2.1" fill="#c9540c"></circle><circle cx="184.5" cy="25.2" r="7" fill="#f28c1b"></circle><circle cx="184.5" cy="25.2" r="4.3" fill="#f6b21a"></circle><circle cx="184.5" cy="25.2" r="1.8" fill="#c9540c"></circle><circle cx="225.5" cy="25.2" r="7" fill="#f28c1b"></circle><circle cx="225.5" cy="25.2" r="4.3" fill="#f6b21a"></circle><circle cx="225.5" cy="25.2" r="1.8" fill="#c9540c"></circle><circle cx="246.0" cy="30.8" r="8.5" fill="#f28c1b"></circle><circle cx="246.0" cy="30.8" r="5.3" fill="#f6b21a"></circle><circle cx="246.0" cy="30.8" r="2.1" fill="#c9540c"></circle><circle cx="266.5" cy="34.8" r="7" fill="#f28c1b"></circle><circle cx="266.5" cy="34.8" r="4.3" fill="#f6b21a"></circle><circle cx="266.5" cy="34.8" r="1.8" fill="#c9540c"></circle><circle cx="287.0" cy="37.2" r="8.5" fill="#f28c1b"></circle><circle cx="287.0" cy="37.2" r="5.3" fill="#f6b21a"></circle><circle cx="287.0" cy="37.2" r="2.1" fill="#c9540c"></circle><circle cx="307.5" cy="38.0" r="7" fill="#f28c1b"></circle><circle cx="307.5" cy="38.0" r="4.3" fill="#f6b21a"></circle><circle cx="307.5" cy="38.0" r="1.8" fill="#c9540c"></circle><circle cx="328.0" cy="37.2" r="8.5" fill="#f28c1b"></circle><circle cx="328.0" cy="37.2" r="5.3" fill="#f6b21a"></circle><circle cx="328.0" cy="37.2" r="2.1" fill="#c9540c"></circle><circle cx="348.5" cy="34.8" r="7" fill="#f28c1b"></circle><circle cx="348.5" cy="34.8" r="4.3" fill="#f6b21a"></circle><circle cx="348.5" cy="34.8" r="1.8" fill="#c9540c"></circle><circle cx="369.0" cy="30.8" r="8.5" fill="#f28c1b"></circle><circle cx="369.0" cy="30.8" r="5.3" fill="#f6b21a"></circle><circle cx="369.0" cy="30.8" r="2.1" fill="#c9540c"></circle><circle cx="389.5" cy="25.2" r="7" fill="#f28c1b"></circle><circle cx="389.5" cy="25.2" r="4.3" fill="#f6b21a"></circle><circle cx="389.5" cy="25.2" r="1.8" fill="#c9540c"></circle><circle cx="430.5" cy="25.2" r="7" fill="#f28c1b"></circle><circle cx="430.5" cy="25.2" r="4.3" fill="#f6b21a"></circle><circle cx="430.5" cy="25.2" r="1.8" fill="#c9540c"></circle><circle cx="451.0" cy="30.8" r="8.5" fill="#f28c1b"></circle><circle cx="451.0" cy="30.8" r="5.3" fill="#f6b21a"></circle><circle cx="451.0" cy="30.8" r="2.1" fill="#c9540c"></circle><circle cx="471.5" cy="34.8" r="7" fill="#f28c1b"></circle><circle cx="471.5" cy="34.8" r="4.3" fill="#f6b21a"></circle><circle cx="471.5" cy="34.8" r="1.8" fill="#c9540c"></circle><circle cx="492.0" cy="37.2" r="8.5" fill="#f28c1b"></circle><circle cx="492.0" cy="37.2" r="5.3" fill="#f6b21a"></circle><circle cx="492.0" cy="37.2" r="2.1" fill="#c9540c"></circle><circle cx="512.5" cy="38.0" r="7" fill="#f28c1b"></circle><circle cx="512.5" cy="38.0" r="4.3" fill="#f6b21a"></circle><circle cx="512.5" cy="38.0" r="1.8" fill="#c9540c"></circle><circle cx="533.0" cy="37.2" r="8.5" fill="#f28c1b"></circle><circle cx="533.0" cy="37.2" r="5.3" fill="#f6b21a"></circle><circle cx="533.0" cy="37.2" r="2.1" fill="#c9540c"></circle><circle cx="553.5" cy="34.8" r="7" fill="#f28c1b"></circle><circle cx="553.5" cy="34.8" r="4.3" fill="#f6b21a"></circle><circle cx="553.5" cy="34.8" r="1.8" fill="#c9540c"></circle><circle cx="574.0" cy="30.8" r="8.5" fill="#f28c1b"></circle><circle cx="574.0" cy="30.8" r="5.3" fill="#f6b21a"></circle><circle cx="574.0" cy="30.8" r="2.1" fill="#c9540c"></circle><circle cx="594.5" cy="25.2" r="7" fill="#f28c1b"></circle><circle cx="594.5" cy="25.2" r="4.3" fill="#f6b21a"></circle><circle cx="594.5" cy="25.2" r="1.8" fill="#c9540c"></circle><circle cx="635.5" cy="25.2" r="7" fill="#f28c1b"></circle><circle cx="635.5" cy="25.2" r="4.3" fill="#f6b21a"></circle><circle cx="635.5" cy="25.2" r="1.8" fill="#c9540c"></circle><circle cx="656.0" cy="30.8" r="8.5" fill="#f28c1b"></circle><circle cx="656.0" cy="30.8" r="5.3" fill="#f6b21a"></circle><circle cx="656.0" cy="30.8" r="2.1" fill="#c9540c"></circle><circle cx="676.5" cy="34.8" r="7" fill="#f28c1b"></circle><circle cx="676.5" cy="34.8" r="4.3" fill="#f6b21a"></circle><circle cx="676.5" cy="34.8" r="1.8" fill="#c9540c"></circle><circle cx="697.0" cy="37.2" r="8.5" fill="#f28c1b"></circle><circle cx="697.0" cy="37.2" r="5.3" fill="#f6b21a"></circle><circle cx="697.0" cy="37.2" r="2.1" fill="#c9540c"></circle><circle cx="717.5" cy="38.0" r="7" fill="#f28c1b"></circle><circle cx="717.5" cy="38.0" r="4.3" fill="#f6b21a"></circle><circle cx="717.5" cy="38.0" r="1.8" fill="#c9540c"></circle><circle cx="738.0" cy="37.2" r="8.5" fill="#f28c1b"></circle><circle cx="738.0" cy="37.2" r="5.3" fill="#f6b21a"></circle><circle cx="738.0" cy="37.2" r="2.1" fill="#c9540c"></circle><circle cx="758.5" cy="34.8" r="7" fill="#f28c1b"></circle><circle cx="758.5" cy="34.8" r="4.3" fill="#f6b21a"></circle><circle cx="758.5" cy="34.8" r="1.8" fill="#c9540c"></circle><circle cx="779.0" cy="30.8" r="8.5" fill="#f28c1b"></circle><circle cx="779.0" cy="30.8" r="5.3" fill="#f6b21a"></circle><circle cx="779.0" cy="30.8" r="2.1" fill="#c9540c"></circle><circle cx="799.5" cy="25.2" r="7" fill="#f28c1b"></circle><circle cx="799.5" cy="25.2" r="4.3" fill="#f6b21a"></circle><circle cx="799.5" cy="25.2" r="1.8" fill="#c9540c"></circle><circle cx="840.5" cy="25.2" r="7" fill="#f28c1b"></circle><circle cx="840.5" cy="25.2" r="4.3" fill="#f6b21a"></circle><circle cx="840.5" cy="25.2" r="1.8" fill="#c9540c"></circle><circle cx="861.0" cy="30.8" r="8.5" fill="#f28c1b"></circle><circle cx="861.0" cy="30.8" r="5.3" fill="#f6b21a"></circle><circle cx="861.0" cy="30.8" r="2.1" fill="#c9540c"></circle><circle cx="881.5" cy="34.8" r="7" fill="#f28c1b"></circle><circle cx="881.5" cy="34.8" r="4.3" fill="#f6b21a"></circle><circle cx="881.5" cy="34.8" r="1.8" fill="#c9540c"></circle><circle cx="902.0" cy="37.2" r="8.5" fill="#f28c1b"></circle><circle cx="902.0" cy="37.2" r="5.3" fill="#f6b21a"></circle><circle cx="902.0" cy="37.2" r="2.1" fill="#c9540c"></circle><circle cx="922.5" cy="38.0" r="7" fill="#f28c1b"></circle><circle cx="922.5" cy="38.0" r="4.3" fill="#f6b21a"></circle><circle cx="922.5" cy="38.0" r="1.8" fill="#c9540c"></circle><circle cx="943.0" cy="37.2" r="8.5" fill="#f28c1b"></circle><circle cx="943.0" cy="37.2" r="5.3" fill="#f6b21a"></circle><circle cx="943.0" cy="37.2" r="2.1" fill="#c9540c"></circle><circle cx="963.5" cy="34.8" r="7" fill="#f28c1b"></circle><circle cx="963.5" cy="34.8" r="4.3" fill="#f6b21a"></circle><circle cx="963.5" cy="34.8" r="1.8" fill="#c9540c"></circle><circle cx="984.0" cy="30.8" r="8.5" fill="#f28c1b"></circle><circle cx="984.0" cy="30.8" r="5.3" fill="#f6b21a"></circle><circle cx="984.0" cy="30.8" r="2.1" fill="#c9540c"></circle><circle cx="1004.5" cy="25.2" r="7" fill="#f28c1b"></circle><circle cx="1004.5" cy="25.2" r="4.3" fill="#f6b21a"></circle><circle cx="1004.5" cy="25.2" r="1.8" fill="#c9540c"></circle><circle cx="1045.5" cy="25.2" r="7" fill="#f28c1b"></circle><circle cx="1045.5" cy="25.2" r="4.3" fill="#f6b21a"></circle><circle cx="1045.5" cy="25.2" r="1.8" fill="#c9540c"></circle><circle cx="1066.0" cy="30.8" r="8.5" fill="#f28c1b"></circle><circle cx="1066.0" cy="30.8" r="5.3" fill="#f6b21a"></circle><circle cx="1066.0" cy="30.8" r="2.1" fill="#c9540c"></circle><circle cx="1086.5" cy="34.8" r="7" fill="#f28c1b"></circle><circle cx="1086.5" cy="34.8" r="4.3" fill="#f6b21a"></circle><circle cx="1086.5" cy="34.8" r="1.8" fill="#c9540c"></circle><circle cx="1107.0" cy="37.2" r="8.5" fill="#f28c1b"></circle><circle cx="1107.0" cy="37.2" r="5.3" fill="#f6b21a"></circle><circle cx="1107.0" cy="37.2" r="2.1" fill="#c9540c"></circle><circle cx="1127.5" cy="38.0" r="7" fill="#f28c1b"></circle><circle cx="1127.5" cy="38.0" r="4.3" fill="#f6b21a"></circle><circle cx="1127.5" cy="38.0" r="1.8" fill="#c9540c"></circle><circle cx="1148.0" cy="37.2" r="8.5" fill="#f28c1b"></circle><circle cx="1148.0" cy="37.2" r="5.3" fill="#f6b21a"></circle><circle cx="1148.0" cy="37.2" r="2.1" fill="#c9540c"></circle><circle cx="1168.5" cy="34.8" r="7" fill="#f28c1b"></circle><circle cx="1168.5" cy="34.8" r="4.3" fill="#f6b21a"></circle><circle cx="1168.5" cy="34.8" r="1.8" fill="#c9540c"></circle><circle cx="1189.0" cy="30.8" r="8.5" fill="#f28c1b"></circle><circle cx="1189.0" cy="30.8" r="5.3" fill="#f6b21a"></circle><circle cx="1189.0" cy="30.8" r="2.1" fill="#c9540c"></circle><circle cx="1209.5" cy="25.2" r="7" fill="#f28c1b"></circle><circle cx="1209.5" cy="25.2" r="4.3" fill="#f6b21a"></circle><circle cx="1209.5" cy="25.2" r="1.8" fill="#c9540c"></circle><circle cx="1250.5" cy="25.2" r="7" fill="#f28c1b"></circle><circle cx="1250.5" cy="25.2" r="4.3" fill="#f6b21a"></circle><circle cx="1250.5" cy="25.2" r="1.8" fill="#c9540c"></circle><circle cx="1271.0" cy="30.8" r="8.5" fill="#f28c1b"></circle><circle cx="1271.0" cy="30.8" r="5.3" fill="#f6b21a"></circle><circle cx="1271.0" cy="30.8" r="2.1" fill="#c9540c"></circle><circle cx="1291.5" cy="34.8" r="7" fill="#f28c1b"></circle><circle cx="1291.5" cy="34.8" r="4.3" fill="#f6b21a"></circle><circle cx="1291.5" cy="34.8" r="1.8" fill="#c9540c"></circle><circle cx="1312.0" cy="37.2" r="8.5" fill="#f28c1b"></circle><circle cx="1312.0" cy="37.2" r="5.3" fill="#f6b21a"></circle><circle cx="1312.0" cy="37.2" r="2.1" fill="#c9540c"></circle><circle cx="1332.5" cy="38.0" r="7" fill="#f28c1b"></circle><circle cx="1332.5" cy="38.0" r="4.3" fill="#f6b21a"></circle><circle cx="1332.5" cy="38.0" r="1.8" fill="#c9540c"></circle><circle cx="1353.0" cy="37.2" r="8.5" fill="#f28c1b"></circle><circle cx="1353.0" cy="37.2" r="5.3" fill="#f6b21a"></circle><circle cx="1353.0" cy="37.2" r="2.1" fill="#c9540c"></circle><circle cx="1373.5" cy="34.8" r="7" fill="#f28c1b"></circle><circle cx="1373.5" cy="34.8" r="4.3" fill="#f6b21a"></circle><circle cx="1373.5" cy="34.8" r="1.8" fill="#c9540c"></circle><circle cx="1394.0" cy="30.8" r="8.5" fill="#f28c1b"></circle><circle cx="1394.0" cy="30.8" r="5.3" fill="#f6b21a"></circle><circle cx="1394.0" cy="30.8" r="2.1" fill="#c9540c"></circle><circle cx="1414.5" cy="25.2" r="7" fill="#f28c1b"></circle><circle cx="1414.5" cy="25.2" r="4.3" fill="#f6b21a"></circle><circle cx="1414.5" cy="25.2" r="1.8" fill="#c9540c"></circle><line x1="0" y1="18" x2="0" y2="92" stroke="#7a4a12" stroke-width="1.2"></line><circle cx="0.0" cy="26.0" r="8" fill="#f28c1b"></circle><circle cx="0.0" cy="26.0" r="5.0" fill="#f6b21a"></circle><circle cx="0.0" cy="26.0" r="2.0" fill="#c9540c"></circle><circle cx="0.0" cy="46.0" r="8" fill="#f28c1b"></circle><circle cx="0.0" cy="46.0" r="5.0" fill="#f6b21a"></circle><circle cx="0.0" cy="46.0" r="2.0" fill="#c9540c"></circle><circle cx="0.0" cy="66.0" r="8" fill="#f28c1b"></circle><circle cx="0.0" cy="66.0" r="5.0" fill="#f6b21a"></circle><circle cx="0.0" cy="66.0" r="2.0" fill="#c9540c"></circle><path d="M0 90 q7 10 0 22 q-7 -12 0 -22z" fill="#3f7d3a"></path><circle cx="0.0" cy="18.0" r="10" fill="#f28c1b"></circle><circle cx="0.0" cy="18.0" r="6.2" fill="#f6b21a"></circle><circle cx="0.0" cy="18.0" r="2.5" fill="#c9540c"></circle><line x1="205" y1="18" x2="205" y2="72" stroke="#7a4a12" stroke-width="1.2"></line><circle cx="205.0" cy="26.0" r="8" fill="#f28c1b"></circle><circle cx="205.0" cy="26.0" r="5.0" fill="#f6b21a"></circle><circle cx="205.0" cy="26.0" r="2.0" fill="#c9540c"></circle><circle cx="205.0" cy="46.0" r="8" fill="#f28c1b"></circle><circle cx="205.0" cy="46.0" r="5.0" fill="#f6b21a"></circle><circle cx="205.0" cy="46.0" r="2.0" fill="#c9540c"></circle><path d="M205 70 q7 10 0 22 q-7 -12 0 -22z" fill="#3f7d3a"></path><circle cx="205.0" cy="18.0" r="10" fill="#f28c1b"></circle><circle cx="205.0" cy="18.0" r="6.2" fill="#f6b21a"></circle><circle cx="205.0" cy="18.0" r="2.5" fill="#c9540c"></circle><line x1="410" y1="18" x2="410" y2="92" stroke="#7a4a12" stroke-width="1.2"></line><circle cx="410.0" cy="26.0" r="8" fill="#f28c1b"></circle><circle cx="410.0" cy="26.0" r="5.0" fill="#f6b21a"></circle><circle cx="410.0" cy="26.0" r="2.0" fill="#c9540c"></circle><circle cx="410.0" cy="46.0" r="8" fill="#f28c1b"></circle><circle cx="410.0" cy="46.0" r="5.0" fill="#f6b21a"></circle><circle cx="410.0" cy="46.0" r="2.0" fill="#c9540c"></circle><circle cx="410.0" cy="66.0" r="8" fill="#f28c1b"></circle><circle cx="410.0" cy="66.0" r="5.0" fill="#f6b21a"></circle><circle cx="410.0" cy="66.0" r="2.0" fill="#c9540c"></circle><path d="M410 90 q7 10 0 22 q-7 -12 0 -22z" fill="#3f7d3a"></path><circle cx="410.0" cy="18.0" r="10" fill="#f28c1b"></circle><circle cx="410.0" cy="18.0" r="6.2" fill="#f6b21a"></circle><circle cx="410.0" cy="18.0" r="2.5" fill="#c9540c"></circle><line x1="615" y1="18" x2="615" y2="72" stroke="#7a4a12" stroke-width="1.2"></line><circle cx="615.0" cy="26.0" r="8" fill="#f28c1b"></circle><circle cx="615.0" cy="26.0" r="5.0" fill="#f6b21a"></circle><circle cx="615.0" cy="26.0" r="2.0" fill="#c9540c"></circle><circle cx="615.0" cy="46.0" r="8" fill="#f28c1b"></circle><circle cx="615.0" cy="46.0" r="5.0" fill="#f6b21a"></circle><circle cx="615.0" cy="46.0" r="2.0" fill="#c9540c"></circle><path d="M615 70 q7 10 0 22 q-7 -12 0 -22z" fill="#3f7d3a"></path><circle cx="615.0" cy="18.0" r="10" fill="#f28c1b"></circle><circle cx="615.0" cy="18.0" r="6.2" fill="#f6b21a"></circle><circle cx="615.0" cy="18.0" r="2.5" fill="#c9540c"></circle><line x1="820" y1="18" x2="820" y2="92" stroke="#7a4a12" stroke-width="1.2"></line><circle cx="820.0" cy="26.0" r="8" fill="#f28c1b"></circle><circle cx="820.0" cy="26.0" r="5.0" fill="#f6b21a"></circle><circle cx="820.0" cy="26.0" r="2.0" fill="#c9540c"></circle><circle cx="820.0" cy="46.0" r="8" fill="#f28c1b"></circle><circle cx="820.0" cy="46.0" r="5.0" fill="#f6b21a"></circle><circle cx="820.0" cy="46.0" r="2.0" fill="#c9540c"></circle><circle cx="820.0" cy="66.0" r="8" fill="#f28c1b"></circle><circle cx="820.0" cy="66.0" r="5.0" fill="#f6b21a"></circle><circle cx="820.0" cy="66.0" r="2.0" fill="#c9540c"></circle><path d="M820 90 q7 10 0 22 q-7 -12 0 -22z" fill="#3f7d3a"></path><circle cx="820.0" cy="18.0" r="10" fill="#f28c1b"></circle><circle cx="820.0" cy="18.0" r="6.2" fill="#f6b21a"></circle><circle cx="820.0" cy="18.0" r="2.5" fill="#c9540c"></circle><line x1="1025" y1="18" x2="1025" y2="72" stroke="#7a4a12" stroke-width="1.2"></line><circle cx="1025.0" cy="26.0" r="8" fill="#f28c1b"></circle><circle cx="1025.0" cy="26.0" r="5.0" fill="#f6b21a"></circle><circle cx="1025.0" cy="26.0" r="2.0" fill="#c9540c"></circle><circle cx="1025.0" cy="46.0" r="8" fill="#f28c1b"></circle><circle cx="1025.0" cy="46.0" r="5.0" fill="#f6b21a"></circle><circle cx="1025.0" cy="46.0" r="2.0" fill="#c9540c"></circle><path d="M1025 70 q7 10 0 22 q-7 -12 0 -22z" fill="#3f7d3a"></path><circle cx="1025.0" cy="18.0" r="10" fill="#f28c1b"></circle><circle cx="1025.0" cy="18.0" r="6.2" fill="#f6b21a"></circle><circle cx="1025.0" cy="18.0" r="2.5" fill="#c9540c"></circle><line x1="1230" y1="18" x2="1230" y2="92" stroke="#7a4a12" stroke-width="1.2"></line><circle cx="1230.0" cy="26.0" r="8" fill="#f28c1b"></circle><circle cx="1230.0" cy="26.0" r="5.0" fill="#f6b21a"></circle><circle cx="1230.0" cy="26.0" r="2.0" fill="#c9540c"></circle><circle cx="1230.0" cy="46.0" r="8" fill="#f28c1b"></circle><circle cx="1230.0" cy="46.0" r="5.0" fill="#f6b21a"></circle><circle cx="1230.0" cy="46.0" r="2.0" fill="#c9540c"></circle><circle cx="1230.0" cy="66.0" r="8" fill="#f28c1b"></circle><circle cx="1230.0" cy="66.0" r="5.0" fill="#f6b21a"></circle><circle cx="1230.0" cy="66.0" r="2.0" fill="#c9540c"></circle><path d="M1230 90 q7 10 0 22 q-7 -12 0 -22z" fill="#3f7d3a"></path><circle cx="1230.0" cy="18.0" r="10" fill="#f28c1b"></circle><circle cx="1230.0" cy="18.0" r="6.2" fill="#f6b21a"></circle><circle cx="1230.0" cy="18.0" r="2.5" fill="#c9540c"></circle><line x1="1435" y1="18" x2="1435" y2="72" stroke="#7a4a12" stroke-width="1.2"></line><circle cx="1435.0" cy="26.0" r="8" fill="#f28c1b"></circle><circle cx="1435.0" cy="26.0" r="5.0" fill="#f6b21a"></circle><circle cx="1435.0" cy="26.0" r="2.0" fill="#c9540c"></circle><circle cx="1435.0" cy="46.0" r="8" fill="#f28c1b"></circle><circle cx="1435.0" cy="46.0" r="5.0" fill="#f6b21a"></circle><circle cx="1435.0" cy="46.0" r="2.0" fill="#c9540c"></circle><path d="M1435 70 q7 10 0 22 q-7 -12 0 -22z" fill="#3f7d3a"></path><circle cx="1435.0" cy="18.0" r="10" fill="#f28c1b"></circle><circle cx="1435.0" cy="18.0" r="6.2" fill="#f6b21a"></circle><circle cx="1435.0" cy="18.0" r="2.5" fill="#c9540c"></circle></svg>